<svg version="1.1" id="Capa_1" xmlns="http://www.w3.org/2000/svg" xmlns:xlink="http://www.w3.org/1999/xlink" x="0px" y="0px"
	 viewBox="0 0 537.671 537.671" style="enable-background:new 0 0 537.671 537.671;" xml:space="preserve">
<path d="M259.698,193.234c0,4.591,1.972,11.353,19.023,17.036c7.242,2.414,29.28,9.76,29.28,31.267
	c0,14.869-10.308,27.369-24.151,30.747v3.213c0,4.143-3.358,7.5-7.5,7.5s-7.5-3.357-7.5-7.5v-3.213
	c-13.844-3.378-24.152-15.878-24.152-30.747c0-4.143,3.358-7.5,7.5-7.5s7.5,3.357,7.5,7.5c0,9.183,7.47,16.652,16.652,16.652
	s16.651-7.47,16.651-16.652c0-5.289-2.26-11.449-19.023-17.036c-19.429-6.477-29.28-16.996-29.28-31.267
	c0-14.868,10.308-27.368,24.152-30.746v-3.213c0-4.143,3.358-7.5,7.5-7.5s7.5,3.357,7.5,7.5v3.213
	c13.843,3.378,24.151,15.878,24.151,30.746c0,4.143-3.358,7.5-7.5,7.5s-7.5-3.357-7.5-7.5c0-9.182-7.47-16.651-16.651-16.651
	S259.698,184.052,259.698,193.234z M537.671,86.575v261.621c0,4.143-3.358,7.5-7.5,7.5h-7.529v42.903
	c0,2.118-0.896,4.138-2.465,5.56c-1.386,1.254-3.183,1.94-5.034,1.94c-0.247,0-0.494-0.012-0.742-0.037l-21.816-2.166v47.2
	c0,2.267-1.025,4.411-2.788,5.835c-1.346,1.087-3.013,1.665-4.712,1.665c-0.526,0-1.056-0.056-1.58-0.168L6.004,355.546
	c-0.013-0.003-0.025-0.005-0.038-0.008l-0.045-0.01c-0.113-0.024-0.221-0.058-0.332-0.087c-0.085-0.022-0.172-0.041-0.256-0.066
	c-0.103-0.031-0.203-0.069-0.305-0.104c-0.037-0.013-0.075-0.026-0.112-0.04c-0.075-0.027-0.151-0.05-0.225-0.08
	c-0.018-0.007-0.035-0.015-0.053-0.022c-0.091-0.038-0.18-0.082-0.269-0.123c-0.094-0.043-0.189-0.082-0.281-0.129
	c-0.023-0.012-0.045-0.026-0.068-0.039c-0.003-0.001-0.006-0.003-0.01-0.005c-0.085-0.045-0.167-0.093-0.25-0.141
	c-0.083-0.048-0.167-0.092-0.247-0.143c-0.038-0.024-0.074-0.051-0.112-0.076c-0.073-0.047-0.144-0.098-0.215-0.147
	c-0.071-0.05-0.144-0.099-0.213-0.152c-0.048-0.036-0.094-0.075-0.141-0.113c-0.063-0.05-0.125-0.101-0.186-0.153
	c-0.059-0.051-0.119-0.101-0.177-0.153c-0.056-0.05-0.109-0.104-0.163-0.156c-0.054-0.052-0.108-0.102-0.16-0.155
	c-0.047-0.049-0.093-0.098-0.139-0.147c-0.061-0.066-0.12-0.135-0.179-0.204c-0.046-0.053-0.094-0.103-0.138-0.157
	c-0.036-0.044-0.069-0.09-0.104-0.135c-0.06-0.077-0.117-0.156-0.174-0.235c-0.039-0.055-0.082-0.106-0.12-0.162
	c-0.03-0.045-0.056-0.092-0.086-0.138c-0.054-0.083-0.105-0.167-0.156-0.253c-0.036-0.061-0.075-0.121-0.109-0.184
	c-0.031-0.057-0.06-0.114-0.09-0.171c-0.039-0.074-0.076-0.149-0.112-0.225c-0.034-0.07-0.067-0.141-0.099-0.212
	c-0.03-0.067-0.059-0.135-0.087-0.203c-0.026-0.063-0.05-0.126-0.074-0.19c-0.031-0.083-0.059-0.166-0.087-0.25
	c-0.026-0.076-0.052-0.151-0.075-0.229c-0.015-0.05-0.029-0.1-0.043-0.15c-0.028-0.099-0.05-0.2-0.073-0.301
	c-0.019-0.081-0.041-0.161-0.057-0.243c-0.007-0.035-0.013-0.071-0.02-0.106c-0.023-0.127-0.039-0.257-0.055-0.387
	c-0.01-0.076-0.024-0.15-0.032-0.227c-0.002-0.019-0.003-0.037-0.005-0.055C0.012,348.655,0,348.427,0,348.196V86.575
	c0-4.143,3.358-7.5,7.5-7.5h522.671C534.313,79.075,537.671,82.432,537.671,86.575z M452.343,340.696
	c3.552-37.141,33.187-66.776,70.328-70.328V164.402c-37.141-3.552-66.776-33.187-70.328-70.328H85.328
	C81.776,131.216,52.141,160.851,15,164.402v105.966c37.141,3.552,66.776,33.187,70.328,70.328H452.343z M70.235,340.696
	c-3.43-28.86-26.375-51.805-55.235-55.235v55.235H70.235z M70.235,94.075H15v55.235C43.86,145.879,66.805,122.935,70.235,94.075z
	 M522.671,94.075h-55.235c3.43,28.86,26.375,51.805,55.235,55.235V94.075z M477.584,402.407L138.413,368.73l339.172,73.078V402.407z
	 M507.642,355.696H158.943l348.699,34.622V355.696z M522.671,340.696v-55.235c-28.86,3.43-51.805,26.375-55.235,55.235h47.687
	c0.006,0,0.013-0.001,0.019-0.001s0.013,0.001,0.019,0.001H522.671z M347.199,158.504c-3.389,2.383-4.204,7.061-1.822,10.449
	c10.001,14.227,15.288,30.974,15.288,48.432c0,46.491-37.824,84.315-84.315,84.315c-46.492,0-84.316-37.824-84.316-84.315
	s37.824-84.315,84.316-84.315c17.459,0,34.208,5.287,48.435,15.29c3.389,2.385,8.067,1.569,10.449-1.821
	c2.382-3.388,1.567-8.066-1.821-10.449c-16.767-11.788-36.499-18.02-57.063-18.02c-54.763,0-99.316,44.553-99.316,99.315
	s44.553,99.315,99.316,99.315c54.763,0,99.315-44.553,99.315-99.315c0-20.563-6.23-40.293-18.018-57.059
	C355.267,156.938,350.588,156.124,347.199,158.504z"/>
<g>
</svg>
