<?xml version="1.0" encoding="iso-8859-1"?>
<!-- Generator: Adobe Illustrator 19.0.0, SVG Export Plug-In . SVG Version: 6.00 Build 0)  -->
<svg version="1.1" id="Capa_1" xmlns="http://www.w3.org/2000/svg" xmlns:xlink="http://www.w3.org/1999/xlink" x="0px" y="0px"
	 viewBox="0 0 474.2 474.2" style="enable-background:new 0 0 474.2 474.2;" xml:space="preserve">
<g>
	<g>
		<path d="M299.069,199v117.9c5.9-4.6,12.3-8.4,19-11.5V199H299.069z"/>
	</g>
</g>
<g>
	<g>
		<path d="M377.069,147v150.6c6.5,0.9,12.9,2.7,19,5.1V147H377.069z"/>
	</g>
</g>
<g>
	<g>
		<path d="M400.469,327c-10.3-6.2-22-9.9-34-10.8h-0.1c-2.1-0.2-4.1-0.3-6.2-0.3c-9.2,0-18.4,1.6-27,4.8c-1,0.6-2.1,1.1-3.3,1.3
			c-29.6,12.2-48.9,41.1-48.9,73.1c0,43.6,35.4,79.1,79.1,79.1c27.9,0,53.8-14.7,68.1-38.8C450.469,397.8,438.069,349.3,400.469,327
			z M360.169,387c13.4,0,25.5,8.2,30.4,20.7c6.5,16.7-1.7,35.6-18.5,42.2v5.5c0,5.5-4.5,10-10,10s-10-4.5-10-10v-4.5
			c-14.3-3.7-24.3-16.7-24.4-31.5v-0.1c-0.1-5.5,4.3-9.9,9.8-9.9s10,4.5,10,10c0,6.9,5.6,12.6,12.5,12.6s12.6-5.6,12.6-12.5
			c0-6.9-5.6-12.6-12.5-12.6c-14.8,0-27.7-10-31.3-24.4c-4.5-17.4,6-35.2,23.4-39.7v-7.2c0-5.5,4.5-10,10-10s10,4.5,10,10v8.3
			c12.5,4.9,20.7,17,20.7,30.4c-0.1,5.6-4.6,10-10.2,10c-5.5,0-10-4.5-10-10c0-6.9-5.6-12.6-12.6-12.6c-7,0.1-12.5,5.7-12.5,12.7
			S353.169,387,360.169,387z"/>
	</g>
</g>
<g>
	<g>
		<rect x="142.069" y="279" width="19" height="138"/>
	</g>
</g>
<g>
	<g>
		<rect x="221.069" y="256" width="19" height="161"/>
	</g>
</g>
<g>
	<g>
		<rect x="63.069" y="365" width="19" height="52"/>
	</g>
</g>
<g>
	<g>
		<path d="M414.569,0l-68.4,0.1c-5.5-0.1-10,4.4-10.1,9.9s4.4,10,9.9,10.1c0.1,0,0.1,0,0.2,0l44.3-0.1l-108.5,108.1l-37.9-37.6
			c-1.9-1.8-4.5-2.7-7.1-2.6c-2.6-0.1-5.2,0.8-7.1,2.6l-192,192c-3.9,3.9-3.9,10.2,0,14c1.9,1.9,4.4,2.9,7.1,2.9s5.2-1,7.1-2.9
			l185-185l37.9,38.2c1.8,2,4.4,3.1,7.1,3.2c2.7-0.1,5.2-1.2,7.1-3.2l115.4-115.5l-0.1,44.5c0,5.6,4.4,10.1,10,10.3
			c5.6-0.1,10-4.7,10-10.3l0.1-68.6C424.569,4.6,420.069,0,414.569,0z"/>
	</g>
</g>
<g>
</g>
<g>
</g>
<g>
</g>
<g>
</g>
<g>
</g>
<g>
</g>
<g>
</g>
<g>
</g>
<g>
</g>
<g>
</g>
<g>
</g>
<g>
</g>
<g>
</g>
<g>
</g>
<g>
</g>
</svg>
