<svg id="Capa_1" enable-background="new 0 0 513.188 513.188" height="512" viewBox="0 0 513.188 513.188" width="512" xmlns="http://www.w3.org/2000/svg"><g><path d="m385.883 223.476h-202.38c-4.142 0-7.5-3.358-7.5-7.5s3.358-7.5 7.5-7.5h202.38c22.858 0 42.078-18.023 42.844-40.176.02-.569.03-1.143.03-1.72 0-27.105-22.244-49.161-49.602-49.202-.049.001-.099.001-.14.001-2.046 0-4.003-.836-5.418-2.314-1.414-1.478-2.164-3.47-2.075-5.514.032-.728.057-1.458.057-2.194 0-27.13-22.285-49.202-49.677-49.202-8.253 0-16.425 2.044-23.631 5.913-1.816.974-3.951 1.159-5.906.511-1.955-.647-3.558-2.071-4.432-3.935-12.5-26.661-38.633-44.115-68.2-45.552-21.925-1.065-42.817 6.708-58.841 21.888-15.786 14.955-24.543 34.982-24.661 56.393-.028 5.102.444 10.228 1.404 15.234.405 2.112-.116 4.296-1.431 5.997-1.315 1.702-3.297 2.757-5.442 2.898-25.98 1.71-46.332 23.267-46.332 49.077 0 .577.01 1.151.03 1.723.767 22.15 19.986 40.173 42.844 40.173h26.198c4.142 0 7.5 3.358 7.5 7.5s-3.358 7.5-7.5 7.5h-26.198c-14.94 0-29.15-5.597-40.011-15.76-10.981-10.276-17.312-24.09-17.824-38.898-.025-.745-.039-1.49-.039-2.238 0-30.967 22.404-57.242 52.311-63.01-.358-3.415-.529-6.851-.51-10.278.14-25.54 10.561-49.406 29.345-67.201 18.747-17.759 44.226-27.229 69.885-25.981 32.621 1.586 61.732 19.599 77.626 47.548 7.544-2.959 15.651-4.502 23.814-4.502 34.116 0 62.146 26.356 64.515 59.633 32.22 3.629 57.34 30.853 57.34 63.791 0 .749-.013 1.494-.039 2.235-.513 14.811-6.843 28.625-17.824 38.901-10.86 10.163-25.07 15.761-40.01 15.761z"/><path d="m366.312 513.188c-35.519.001-67.767-21.5-81.318-54.445h-56.801c-13.55 32.942-45.803 54.443-81.319 54.445-1.119 0-2.236-.021-3.361-.064-45.185-1.725-82.225-38.448-84.322-83.605-1.128-24.279 7.467-47.304 24.201-64.833 16.47-17.253 38.581-26.88 62.371-27.19.114-.005.228-.008.342-.008h12.704c4.142 0 7.5 3.358 7.5 7.5s-3.358 7.5-7.5 7.5h-11.864c-20.101 0-38.818 8.01-52.703 22.555-13.876 14.536-21.003 33.635-20.067 53.779 1.739 37.437 32.448 67.882 69.911 69.312 30.898 1.179 59.27-17.325 70.617-46.044 2.004-5.071 6.81-8.348 12.243-8.348h59.295c5.434 0 10.24 3.277 12.244 8.348 11.348 28.72 39.723 47.221 70.617 46.044 37.463-1.43 68.172-31.875 69.911-69.312.936-20.145-6.191-39.244-20.067-53.779-13.885-14.545-32.602-22.555-52.703-22.555h-177.434c-4.142 0-7.5-3.358-7.5-7.5s3.358-7.5 7.5-7.5h177.435c24.24 0 46.81 9.659 63.553 27.197 16.734 17.529 25.329 40.554 24.201 64.833-2.098 45.157-39.137 81.88-84.322 83.605-1.125.044-2.247.065-3.364.065z"/><path d="m155.189 460.714h-21.58c-5.449 0-9.882-4.433-9.882-9.882v-4.821h-4.821c-5.449 0-9.883-4.434-9.883-9.883v-21.579c0-5.449 4.434-9.882 9.883-9.882h4.821v-4.821c0-5.449 4.433-9.883 9.882-9.883h21.58c5.449 0 9.882 4.434 9.882 9.883v4.821h4.821c5.449 0 9.882 4.433 9.882 9.882v21.579c0 5.449-4.433 9.883-9.882 9.883h-4.821v4.821c.001 5.449-4.432 9.882-9.882 9.882zm-16.461-15h11.344v-4.821c0-5.449 4.434-9.882 9.883-9.882h4.82v-11.344h-4.82c-5.449 0-9.883-4.434-9.883-9.883v-4.821h-11.344v4.821c0 5.449-4.434 9.883-9.883 9.883h-4.821v11.344h4.821c5.449 0 9.883 4.433 9.883 9.882zm31.165-26.047h.01z"/><path d="m393.172 433.118c-2.083 0-4.179-.286-6.24-.864-5.907-1.658-10.814-5.516-13.819-10.865-3.004-5.349-3.746-11.547-2.088-17.454 1.657-5.906 5.516-10.814 10.865-13.818 5.348-3.004 11.547-3.745 17.454-2.089 12.193 3.422 19.329 16.126 15.906 28.319-1.657 5.906-5.516 10.814-10.865 13.818-3.482 1.956-7.325 2.953-11.213 2.953zm-.047-30.949c-1.349 0-2.682.346-3.89 1.024-1.855 1.042-3.194 2.745-3.769 4.794s-.318 4.2.724 6.055 2.745 3.194 4.793 3.769c2.049.576 4.2.318 6.055-.724s3.194-2.745 3.769-4.793c1.188-4.23-1.288-8.637-5.518-9.824-.713-.201-1.441-.301-2.164-.301z"/><path d="m340.9 464.9c-2.049 0-4.13-.276-6.198-.856-5.907-1.658-10.814-5.517-13.819-10.866-3.004-5.349-3.746-11.547-2.088-17.454 3.422-12.193 16.125-19.328 28.319-15.907 12.193 3.422 19.328 16.126 15.907 28.319-2.842 10.127-12.085 16.764-22.121 16.764zm.011-30.938c-3.482 0-6.688 2.303-7.674 5.816-1.187 4.23 1.289 8.637 5.518 9.824 4.228 1.186 8.637-1.288 9.825-5.518 1.187-4.229-1.289-8.637-5.518-9.824-.718-.201-1.44-.298-2.151-.298z"/><path d="m281.239 349.162c-4.142 0-7.5-3.358-7.5-7.5v-24.753c0-1.131-.92-2.052-2.051-2.052h-34.092c-1.131 0-2.051.921-2.051 2.052v23.588c0 4.142-3.358 7.5-7.5 7.5s-7.5-3.358-7.5-7.5v-23.588c0-9.402 7.649-17.052 17.051-17.052h34.092c9.402 0 17.051 7.649 17.051 17.052v24.753c0 4.142-3.358 7.5-7.5 7.5z"/><path d="m254.594 311.808c-4.142 0-7.5-3.358-7.5-7.5v-20.926c0-15.298 12.445-27.743 27.743-27.743 7.026 0 12.743-5.716 12.743-12.743v-26.921c0-4.142 3.358-7.5 7.5-7.5s7.5 3.358 7.5 7.5v26.921c0 15.297-12.445 27.743-27.743 27.743-7.027 0-12.743 5.717-12.743 12.743v20.926c0 4.142-3.358 7.5-7.5 7.5z"/><path d="m233.53 410.355c-1.919 0-3.839-.732-5.303-2.197-2.929-2.929-2.929-7.678 0-10.606l12.206-12.207c2.929-2.929 7.678-2.929 10.607 0s2.929 7.678 0 10.607l-12.207 12.206c-1.464 1.465-3.383 2.197-5.303 2.197z"/><path d="m267.451 410.355c-1.919 0-3.839-.732-5.303-2.197-2.929-2.929-2.929-7.678 0-10.606l12.207-12.207c2.929-2.929 7.678-2.929 10.606 0 2.929 2.929 2.929 7.678 0 10.607l-12.206 12.206c-1.465 1.465-3.385 2.197-5.304 2.197z"/></g></svg>