<svg id="Layer_1" data-name="Layer 1" xmlns="http://www.w3.org/2000/svg" viewBox="0 0 25 25"><title>Mobile Phone</title><path id="Mobile_Phone" data-name="Mobile Phone" d="M18.75,0H6.25A1.25,1.25,0,0,0,5,1.25v22.5A1.25,1.25,0,0,0,6.25,25h12.5A1.25,1.25,0,0,0,20,23.75V1.25A1.25,1.25,0,0,0,18.75,0ZM19,23.75a.25.25,0,0,1-.25.25H6.25A.25.25,0,0,1,6,23.75V20H19ZM19,19H6V5H19ZM19,4H6V1.25A.25.25,0,0,1,6.25,1h12.5a.25.25,0,0,1,.25.25ZM10,2h5V3H10Zm1.5,20a1,1,0,1,1,1,1A1,1,0,0,1,11.5,22Z" fill="#0e1d25"/></svg>