<svg version="1.1" id="Capa_1" xmlns="http://www.w3.org/2000/svg" xmlns:xlink="http://www.w3.org/1999/xlink" x="0px" y="0px"
	 viewBox="0 0 512.001 512.001" style="enable-background:new 0 0 512.001 512.001;" xml:space="preserve">
<g>
	<g>
		<path d="M430.893,423.342v-61.009H271v-36.229h99.965c63.883,0,115.855-51.972,115.855-115.855
			c0-63.466-51.296-115.176-114.605-115.849C358.565,39.718,308.819,0,251.289,0c-68.721,0-124.63,55.909-124.63,124.63
			c0,0.518,0.003,1.037,0.01,1.556c-0.508-0.008-1.015-0.012-1.523-0.012c-55.121,0-99.965,44.844-99.965,99.965
			s44.844,99.965,99.965,99.965H241v36.229H81.107v61.009c-17.377,6.5-29.784,23.268-29.784,42.885
			c0,25.239,20.534,45.773,45.773,45.773s45.773-20.534,45.773-45.773c0-20.353-13.356-37.638-31.762-43.571v-30.323H241v30.658
			c-17.892,6.225-30.773,23.25-30.773,43.235c0,25.24,20.534,45.774,45.773,45.774s45.773-20.534,45.773-45.773
			c0-19.986-12.881-37.01-30.773-43.235v-30.658h129.893v30.323c-18.405,5.933-31.762,23.218-31.762,43.571
			c0,25.239,20.534,45.773,45.773,45.773s45.773-20.534,45.773-45.773C460.677,446.611,448.27,429.842,430.893,423.342z
			 M112.869,466.227c0,8.697-7.075,15.773-15.773,15.773c-8.697,0-15.773-7.076-15.773-15.773s7.076-15.773,15.773-15.773
			S112.869,457.53,112.869,466.227z M271.773,466.227c0,8.697-7.076,15.773-15.773,15.773s-15.773-7.076-15.773-15.773
			s7.076-15.773,15.773-15.773C264.697,450.454,271.773,457.53,271.773,466.227z M125.144,296.103
			c-38.578,0.001-69.964-31.385-69.964-69.964s31.386-69.965,69.965-69.965c4.97,0,9.982,0.54,14.897,1.605l21.681,4.699
			l-3.716-21.872c-0.895-5.266-1.349-10.641-1.349-15.977c0-52.179,42.451-94.63,94.63-94.63c47.232,0,87.552,35.243,93.787,81.98
			l1.936,14.51l14.553-1.582c3.139-0.341,6.301-0.514,9.4-0.514c47.341,0,85.855,38.515,85.855,85.855
			c0,47.34-38.514,85.855-85.855,85.855H125.144z M414.904,482c-8.697,0-15.773-7.076-15.773-15.773s7.076-15.773,15.773-15.773
			s15.773,7.076,15.773,15.773S423.601,482,414.904,482z"/>
	</g>
</g>
</svg>
