<svg height="400pt" viewBox="0 -31 400.5549 400" width="400pt" xmlns="http://www.w3.org/2000/svg"><path d="m9.609375 144.976562 44.320313-32.265624v163.054687c-6.042969 1.707031-11.003907 6.039063-13.503907 11.800781-2.503906 5.761719-2.289062 12.339844.585938 17.925782h-3.128907c-12.042968.015624-22.5 8.289062-25.292968 20h-2.234375c-3.3125 0-6 2.6875-6 6s2.6875 6 6 6h379.144531c3.316406 0 6-2.6875 6-6s-2.683594-6-6-6h-25.183594v-27.738282l11.273438-7.140625c6.371094 4.277344 14.878906 3.441407 20.292968-1.996093 5.414063-5.4375 6.21875-13.949219 1.910157-20.300782-4.304688-6.355468-12.507813-8.765625-19.5625-5.75-7.058594 3.015625-10.988281 10.609375-9.375 18.109375l-4.542969 2.875v-21.949219c11.714844-2.789062 19.984375-13.25 20-25.292968v-26.664063c0-14.359375-11.640625-26-26-26s-26 11.640625-26 26v26.664063c.015625 12.042968 8.289062 22.503906 20 25.292968v33.867188l-5.90625-4.21875c-2.699219-1.925781-6.445312-1.300781-8.371094 1.394531-1.925781 2.695313-1.300781 6.445313 1.394532 8.371094l12.882812 9.199219v15.277344h-26.382812v-212.78125l44.316406 32.265624c2.679687 1.898438 6.386718 1.292969 8.320312-1.363281 1.933594-2.652343 1.375-6.367187-1.253906-8.335937l-51.382812-37.40625v-75.746094c0-3.3125-2.6875-6-6-6h-35.015626c-3.3125 0-6 2.6875-6 6v41.515625l-85.453124-62.214844c-2.105469-1.53125-4.957032-1.53125-7.0625 0l-183.851563 133.851563c-1.769531 1.246094-2.734375 3.351562-2.515625 5.507812.214844 2.15625 1.578125 4.027344 3.5625 4.894532 1.984375.871093 4.285156.601562 6.015625-.703126zm374.890625 128.355469c2.210938 0 4 1.789063 4 4 0 2.207031-1.789062 4-4 4-2.207031 0-4-1.792969-4-4 0-2.210937 1.792969-4 4-4zm-40.183594-37.023437v-26.664063c0-7.734375 6.269532-14 14-14 7.734375 0 14 6.265625 14 14v26.664063c-.007812 5.402344-3.121094 10.316406-8 12.632812v-5c0-3.316406-2.6875-6-6-6s-6 2.683594-6 6v5c-4.878906-2.316406-7.992187-7.230468-8-12.632812zm-319.082031 89.183594c2.320313-4.882813 7.242187-7.996094 12.648437-8h85c5.40625.003906 10.324219 3.117187 12.644532 8zm69.457031-29.550782c0-4.96875 4.027344-9 9-9 4.96875 0 9 4.03125 9 9s-4.03125 9-9 9c-4.96875-.007812-8.996094-4.03125-9-9zm129.238282 29.550782h-48v-108h48zm66.988281-297.367188h23.011719v61.007812l-23.011719-16.753906zm-224.988281 75.851562 124-90.277343 124 90.277343v221.515626h-78v-114c0-3.3125-2.6875-6-6-6h-60c-3.3125 0-6 2.6875-6 6v114h-15.753907c-2.792969-11.710938-13.25-19.980469-25.292969-20h-.515624c4.539062-8.835938 2.269531-19.640626-5.445313-25.902344-7.710937-6.257813-18.753906-6.257813-26.46875 0-7.710937 6.261718-9.980469 17.066406-5.441406 25.902344h-6.644531c2.835937-5.507813 3.089843-11.992188.6875-17.707032-2.398438-5.710937-7.207032-10.070312-13.125-11.902344zm2.757812 191.964844c0 4.96875-4.027344 9-9 9-4.96875 0-9-4.03125-9-9s4.03125-9 9-9c4.96875.003906 8.996094 4.03125 9.003906 9zm0 0"/><path d="m189.929688 103.628906c14.359374 0 26-11.640625 26-26s-11.640626-26-26-26c-14.359376 0-26 11.640625-26 26 .015624 14.351563 11.648437 25.984375 26 26zm0-40c7.730468 0 14 6.265625 14 14 0 7.730469-6.269532 14-14 14-7.734376 0-14-6.269531-14-14 .007812-7.730468 6.269531-13.992187 14-14zm0 0"/></svg>