<svg version="1.1" id="Capa_1" xmlns="http://www.w3.org/2000/svg" xmlns:xlink="http://www.w3.org/1999/xlink" x="0px" y="0px"
	 viewBox="0 0 480.016 480.016" style="enable-background:new 0 0 480.016 480.016;" xml:space="preserve">
<g>
	<g>
		<path d="M479.464,189.24c-0.096-0.248-0.216-0.472-0.336-0.712c-0.311-0.637-0.706-1.229-1.176-1.76
			c-0.112-0.128-0.16-0.296-0.28-0.416L448,156.696V88.008c0-4.418-3.582-8-8-8h-68.688L320.4,29.096
			c-13.469-13.548-31.8-21.142-50.904-21.088h-58.992c-19.104-0.054-37.435,7.54-50.904,21.088l-50.912,50.912H72
			c-4.418,0-8,3.582-8,8v24H40c-4.418,0-8,3.582-8,8v36.688L2.344,186.352c-0.12,0.12-0.168,0.288-0.28,0.416
			c-0.47,0.531-0.865,1.123-1.176,1.76c-0.12,0.24-0.24,0.464-0.336,0.712c-0.349,0.882-0.536,1.82-0.552,2.768v272
			c0,0.104,0.056,0.184,0.056,0.288c0.018,0.951,0.204,1.891,0.552,2.776c0,0.064,0.08,0.12,0.112,0.184
			c0.453,1.045,1.153,1.965,2.04,2.68c0.507,0.444,1.069,0.82,1.672,1.12c0.246,0.137,0.5,0.26,0.76,0.368
			c0.893,0.362,1.844,0.56,2.808,0.584h464c0.957-0.018,1.902-0.208,2.792-0.56c0.273-0.109,0.54-0.232,0.8-0.368
			c0.599-0.302,1.159-0.678,1.664-1.12c0.884-0.713,1.581-1.63,2.032-2.672c0-0.072,0.096-0.128,0.12-0.2
			c0.351-0.884,0.538-1.825,0.552-2.776c0-0.104,0.056-0.184,0.056-0.288V192.008C480,191.06,479.813,190.122,479.464,189.24z
			 M448,179.32l12.688,12.688L448,204.696V179.32z M170.912,40.408c10.478-10.534,24.734-16.44,39.592-16.4h58.992
			c14.858-0.04,29.114,5.866,39.592,16.4l39.6,39.6H131.312L170.912,40.408z M80,96.008h352v124.688l-16,16V120.008
			c0-4.418-3.582-8-8-8H80V96.008z M48,128.008h352v124.688l-35.312,35.312h-57.376l-16-16H344c4.418,0,8-3.582,8-8
			c0-13.255,10.745-24,24-24c4.418,0,8-3.582,8-8v-48c0-4.418-3.582-8-8-8c-13.255,0-24-10.745-24-24c0-4.418-3.582-8-8-8H104
			c-4.418,0-8,3.582-8,8c0,13.255-10.745,24-24,24c-4.418,0-8,3.582-8,8v48c0,4.418,3.582,8,8,8c13.255,0,24,10.745,24,24
			c0,4.418,3.582,8,8,8h84.68l-16,16h-57.368L48,220.696V128.008z M348.688,304.008L336,316.696l-12.688-12.688H348.688z
			 M216,246.536v8.192c-1.176,0.416-2.4,0.8-3.52,1.28H111.2c-3.23-15.701-15.499-27.97-31.2-31.2v-33.6
			c15.701-3.23,27.97-15.499,31.2-31.2H216v9.472c-12.473,4.393-19.023,18.066-14.629,30.539
			c3.38,9.596,12.455,16.009,22.629,15.989c4.418,0,8,3.582,8,8s-3.582,8-8,8s-8-3.582-8-8h-16
			C200.042,234.142,206.445,243.158,216,246.536z M232,246.536c12.473-4.393,19.023-18.066,14.63-30.539
			c-3.38-9.596-12.455-16.009-22.63-15.989c-4.418,0-8-3.582-8-8s3.582-8,8-8s8,3.582,8,8h16c-0.042-10.134-6.445-19.15-16-22.528
			v-9.472h104.8c3.23,15.701,15.499,27.97,31.2,31.2v33.6c-15.701,3.23-27.97,15.499-31.2,31.2h-69.28
			c-11.235-4.612-23.451-6.32-35.52-4.968V246.536z M156.688,304.008L144,316.696l-12.688-12.688H156.688z M32,179.32v25.376
			l-12.688-12.688L32,179.32z M16,211.32l116.688,116.688L16,444.696V211.32z M27.312,456.008l122.336-122.336l50.736-50.736
			c21.886-21.832,57.314-21.832,79.2,0l50.736,50.736l122.368,122.336H27.312z M464,444.696L347.312,328.008L464,211.32V444.696z"/>
	</g>
</g>
</svg>
