<?xml version="1.0" encoding="utf-8"?>
<!-- Svg Vector Icons : http://www.onlinewebfonts.com/icon -->
<!DOCTYPE svg PUBLIC "-//W3C//DTD SVG 1.1//EN" "http://www.w3.org/Graphics/SVG/1.1/DTD/svg11.dtd">
<svg version="1.1" xmlns="http://www.w3.org/2000/svg" xmlns:xlink="http://www.w3.org/1999/xlink" x="0px" y="0px" viewBox="0 0 1000 1000" enable-background="new 0 0 1000 1000" xml:space="preserve">
<metadata> Svg Vector Icons : http://www.onlinewebfonts.com/icon </metadata>
<g><g transform="translate(0.000000,511.000000) scale(0.100000,-0.100000)"><path d="M6386.8,4588.4c-524.5-66-990.8-262.2-1110.9-466.4c-164.1-280.2,72.1-538.4,640.5-702.6c954.8-274.2,2327.9-80.1,2616.2,368.3c216.2,334.3-242.2,674.6-1064.9,792.7C7239.5,4612.4,6611,4616.4,6386.8,4588.4z M7667.9,4354.2c462.4-96.1,720.6-242.2,720.6-404.3c0-168.1-358.3-338.3-890.8-424.4c-250.2-40-972.8-34-1241,12c-656.5,108.1-980.8,340.3-768.7,552.5c126.1,124.1,424.4,234.2,768.7,280.2c100.1,12,194.2,26,210.2,30c16,4,250.2,4,520.4,0C7377.6,4394.2,7515.7,4386.2,7667.9,4354.2z"/><path d="M8378.4,3125.2c-606.5-380.3-2289.9-394.3-2908.4-22c-134.1,80.1-204.2,82.1-232.2,2c-26-76.1,18-120.1,220.2-218.2c624.5-302.3,1921.6-342.3,2692.3-80.1c380.3,128.1,526.5,258.2,394.3,350.3C8486.5,3197.2,8496.6,3199.2,8378.4,3125.2z"/><path d="M8378.4,2464.6c-610.5-382.3-2313.9-392.3-2918.4-16c-122.1,76.1-194.2,74.1-222.2-4c-26-76.1,18-120.1,218.2-216.2c650.5-314.3,1983.7-344.3,2752.3-62.1c324.3,118.1,454.4,248.2,336.3,330.3C8486.5,2536.7,8496.6,2538.7,8378.4,2464.6z"/><path d="M8368.4,1798.1c-436.4-268.2-1467.2-368.3-2281.9-218.2c-234.2,44-512.4,136.1-628.5,208.2c-118.1,76.1-192.2,74.1-220.2-4c-26-76.1,18-120.1,218.2-216.2c184.2-90.1,452.4-164.1,774.7-214.2c278.2-42,1014.9-48,1287.1-10c700.6,100.1,1227,352.3,1026.9,492.4c-24,18-50,32-56,32C8482.5,1868.1,8428.5,1836.1,8368.4,1798.1z"/><path d="M8368.4,1137.5c-430.4-266.2-1501.3-366.3-2291.9-216.2c-230.2,42-504.4,134.1-618.5,206.2c-118.1,76.1-192.2,74.1-220.2-4c-26-76.1,18-120.1,218.2-216.2c186.2-90.1,452.4-164.1,774.7-214.2c278.2-42,992.8-48,1277.1-10c704.6,96.1,1239.1,350.3,1036.9,492.4c-24,18-50,32-56,32C8482.5,1207.6,8428.5,1175.5,8368.4,1137.5z"/><path d="M8386.5,489c-364.3-230.2-1151-346.3-1899.6-282.2c-436.4,38-836.7,140.1-1028.9,260.2c-118.1,76.1-192.2,74.1-220.2-4c-26-76.1,18-120.1,218.2-216.2c186.2-90.1,452.4-164.1,774.7-214.2c312.3-48,1016.9-48,1337.1,0c404.3,60,748.6,168.1,928.8,292.2c104.1,72.1,122.1,140.1,48,190.2C8486.5,555,8492.5,557,8386.5,489z"/><path d="M125.5-257.7c-34-34-34-3200.7,0-3234.7c18-18,220.2-24,788.6-24h766.6l30,44c28,40,32,224.2,32,1597.3s-4,1557.3-32,1597.3l-30,44H914.2C345.7-233.7,143.5-239.6,125.5-257.7z M1542.7-1875v-1441.2H922.2H301.7V-1875v1441.2h620.5h620.5V-1875z"/><path d="M3554.4-467.9c-344.3-24-824.7-114.1-1267.1-236.2c-264.2-74.1-330.3-114.1-310.3-190.2c22-82.1,70.1-84.1,334.3-12C2953.9-730.1,3330.2-670,3804.6-668c512.4,0,704.6-50,1367.1-360.3c570.5-266.2,726.6-302.2,1555.3-366.3c586.5-44,784.7-68.1,950.8-110.1c278.2-74.1,390.3-188.2,390.3-398.3c0-132.1-54-208.2-184.2-262.2c-142.1-58.1-528.4-62.1-1096.9-10c-536.4,50-1014.9,58-1171,22c-268.2-64.1-488.4-144.1-500.4-182.1c-28-88.1,4-114.1,274.2-220.2c524.4-208.2,958.8-328.3,1367.1-382.3c246.2-32,766.7-12,1000.8,38c396.3,86.1,620.5,184.2,1056.9,468.4c474.4,306.3,714.6,392.3,846.7,306.3c50-32,52.1-40,44-168.2c-6-72.1-26-162.1-44-196.2c-96.1-188.2-710.6-822.7-1012.8-1044.9c-212.2-158.1-440.4-274.2-638.5-324.3c-84.1-22-354.3-66.1-602.5-98.1c-248.2-34-652.5-98.1-900.8-144.1c-404.3-76.1-482.4-84.1-760.6-86.1c-288.2,0-322.3,4-470.4,56c-88.1,30-520.4,234.2-960.8,452.4c-440.4,218.2-956.8,466.4-1147,550.5c-338.3,150.1-1018.9,392.3-1102.9,392.3c-22,0-56-22-74.1-50c-58-88.1-8-130.1,252.2-206.2c458.4-132.1,962.8-354.3,2119.8-932.8c346.3-174.1,724.6-348.3,840.7-388.3c212.2-74.1,212.2-74.1,542.5-74.1c300.3,2,370.3,10,780.7,86.1c248.2,46,626.5,106.1,840.7,134.1c818.7,108.1,976.8,162.1,1427.2,496.4c308.3,228.2,932.8,876.7,1032.9,1072.9c98.1,190.2,96.1,504.4-4,598.5c-102.1,96.1-290.2,130.1-464.4,82.1c-130.1-36-368.3-162.1-664.6-354.3c-330.3-214.2-442.4-272.2-660.6-346.3c-322.3-108.1-462.4-128.1-896.7-128.1c-358.3,2-426.3,8-660.6,58c-248.2,52.1-900.8,256.2-938.8,292.3c-8,8,36,28,100.1,42c170.1,36,628.5,28,1129-20c934.8-92.1,1305.1-30,1447.2,238.2c96.1,184.2,70.1,438.4-60,582.5c-194.2,216.2-470.4,284.2-1407.2,358.3c-792.7,60-924.8,90.1-1371.2,294.2C4491.2-491.9,4198.9-423.8,3554.4-467.9z"/></g></g>
</svg>