<?xml version="1.0" ?><!DOCTYPE svg  PUBLIC '-//W3C//DTD SVG 1.1//EN'  'http://www.w3.org/Graphics/SVG/1.1/DTD/svg11.dtd'><svg enable-background="new 0 0 50 50" height="50px" id="Layer_1" version="1.1" viewBox="0 0 50 50" width="50px" xml:space="preserve" xmlns="http://www.w3.org/2000/svg" xmlns:xlink="http://www.w3.org/1999/xlink"><rect fill="none" height="50" width="50"/><path d="M48.533,28.494  L44.72,32.15l0.43,5.266c0.059,0.719-0.396,1.377-1.088,1.578l-5.075,1.463l-2.064,4.862c-0.283,0.664-0.995,1.042-1.697,0.892  l-5.179-1.061l-4.087,3.345c-0.279,0.228-0.618,0.342-0.959,0.342s-0.68-0.114-0.959-0.342l-4.086-3.345l-5.18,1.061  c-0.703,0.152-1.413-0.229-1.697-0.892l-2.064-4.862l-5.075-1.463c-0.69-0.201-1.146-0.859-1.088-1.578l0.43-5.266l-3.813-3.656  c-0.521-0.498-0.617-1.295-0.232-1.902l2.829-4.462l-1.68-5.01c-0.228-0.683,0.058-1.432,0.681-1.791l4.578-2.64l0.842-5.214  C8.602,6.763,9.201,6.232,9.92,6.203l5.279-0.208l3.168-4.227c0.434-0.575,1.213-0.768,1.862-0.458L25,3.58l4.771-2.27  c0.646-0.311,1.429-0.118,1.861,0.458l3.169,4.227l5.279,0.208c0.719,0.029,1.318,0.56,1.436,1.271l0.842,5.214l4.578,2.64  c0.623,0.359,0.907,1.108,0.681,1.791l-1.679,5.01l2.828,4.462C49.15,27.199,49.054,27.996,48.533,28.494z" fill="none" stroke="#000000" stroke-linecap="round" stroke-miterlimit="10" stroke-width="1.937"/><g><path d="M15.715,22.574c-0.179-0.569-0.239-0.898-0.239-3.054c0-2.156,0.061-2.485,0.239-3.054   c0.479-1.407,1.737-2.305,3.443-2.305s2.964,0.898,3.442,2.305c0.18,0.569,0.24,0.898,0.24,3.054c0,2.155-0.061,2.485-0.24,3.054   c-0.479,1.407-1.736,2.305-3.442,2.305S16.194,23.981,15.715,22.574z M20.774,22.095c0.09-0.299,0.15-0.719,0.15-2.575   s-0.061-2.275-0.15-2.575c-0.239-0.688-0.838-1.048-1.616-1.048s-1.377,0.359-1.616,1.048c-0.09,0.299-0.15,0.719-0.15,2.575   s0.061,2.275,0.15,2.575c0.239,0.688,0.838,1.048,1.616,1.048S20.535,22.784,20.774,22.095z M29.756,14.371   c0.12-0.209,0.239-0.299,0.479-0.299h1.437c0.18,0,0.239,0.15,0.15,0.299L19.996,34.789c-0.119,0.209-0.239,0.299-0.449,0.299   H18.11c-0.18,0-0.27-0.149-0.18-0.299L29.756,14.371z M26.912,29.67c0-2.156,0.06-2.485,0.239-3.055   c0.479-1.407,1.736-2.305,3.443-2.305c1.706,0,2.964,0.898,3.442,2.305c0.18,0.569,0.239,0.898,0.239,3.055   c0,2.154-0.06,2.484-0.239,3.053c-0.479,1.407-1.736,2.306-3.442,2.306c-1.707,0-2.964-0.898-3.443-2.306   C26.972,32.154,26.912,31.824,26.912,29.67z M30.595,33.292c0.778,0,1.377-0.359,1.616-1.048c0.09-0.299,0.149-0.719,0.149-2.574   c0-1.856-0.06-2.275-0.149-2.575c-0.239-0.688-0.838-1.048-1.616-1.048s-1.378,0.359-1.617,1.048   c-0.09,0.3-0.149,0.719-0.149,2.575c0,1.855,0.06,2.275,0.149,2.574C29.217,32.933,29.816,33.292,30.595,33.292z"/></g></svg>