<?xml version="1.0" encoding="iso-8859-1"?>
<!-- Generator: Adobe Illustrator 19.0.0, SVG Export Plug-In . SVG Version: 6.00 Build 0)  -->
<svg version="1.1" id="Capa_1" xmlns="http://www.w3.org/2000/svg" xmlns:xlink="http://www.w3.org/1999/xlink" x="0px" y="0px"
	 viewBox="0 0 480.001 480.001" style="enable-background:new 0 0 480.001 480.001;" xml:space="preserve">
<g>
	<g>
		<path d="M328.584,137.508l-5.2-1.304c-25.094-6.267-51.415,3.953-65.704,25.512c-2.333,3.752-1.184,8.685,2.568,11.018
			c3.598,2.238,8.316,1.282,10.76-2.178c10.554-15.894,29.964-23.434,48.48-18.832l5.208,1.304c4.293,1.043,8.619-1.592,9.663-5.885
			C335.391,142.893,332.819,138.601,328.584,137.508z"/>
	</g>
</g>
<g>
	<g>
		<path d="M412.221,229.736c-2.023-0.673-4.23-0.51-6.133,0.451h0.024c-36.956,18.472-80.452,18.472-117.408,0
			c-3.943-1.993-8.756-0.412-10.749,3.531c-0.962,1.902-1.124,4.11-0.451,6.133l7.64,23.008
			c11.293,34.383,48.321,53.101,82.704,41.808c19.789-6.5,35.309-22.02,41.808-41.808l7.632-23.008
			C418.682,235.659,416.413,231.131,412.221,229.736z M394.48,257.828c-8.521,25.997-36.503,40.164-62.501,31.643
			c-14.983-4.911-26.733-16.661-31.643-31.643l-2.056-6.2c31.792,11.2,66.456,11.2,98.248,0L394.48,257.828z"/>
	</g>
</g>
<g>
	<g>
		<path d="M447.771,165.01c-0.082-0.132-0.169-0.262-0.259-0.39c-14.3-21.536-40.605-31.743-65.688-25.488l-5.216,1.312
			c-4.21,1.342-6.534,5.843-5.192,10.052c1.225,3.841,5.116,6.17,9.08,5.436l5.224-1.304c18.511-4.597,37.914,2.942,48.464,18.832
			c2.333,3.752,7.267,4.902,11.018,2.568C448.954,173.695,450.104,168.762,447.771,165.01z"/>
	</g>
</g>
<g>
	<g>
		<path d="M474.536,64.66c-82.531-27.456-171.733-27.456-254.264,0c-3.259,1.093-5.456,4.146-5.456,7.584v59.584
			c-67.823,14.924-138.424,11.167-204.28-10.872c-4.19-1.401-8.723,0.861-10.123,5.051C0.14,126.824,0,127.679,0,128.54v117.448
			c-0.001,64.852,27.615,126.635,75.936,169.888c28.738,25.705,71.861,26.826,101.896,2.648l2.448-1.968
			c33.037-26.464,57.949-61.701,71.88-101.672c10.829,16.629,23.805,31.757,38.592,44.992
			c28.736,25.704,71.856,26.825,101.888,2.648l2.448-1.968c53.857-43.144,85.115-108.481,84.912-177.488V72.244
			C479.999,68.804,477.798,65.75,474.536,64.66z M170.248,404.1l-2.4,1.968c-23.954,19.283-58.349,18.379-81.256-2.136
			C41.668,363.721,15.995,306.28,16,245.988V139.492c64.473,19.634,132.861,22.661,198.816,8.8v41.728
			c0,4.677,0.147,9.355,0.44,14.032c0.096,1.552,0.304,3.088,0.432,4.64c0.256,3.104,0.496,6.216,0.88,9.312
			c0.24,1.88,0.584,3.736,0.864,5.6c0.416,2.752,0.8,5.512,1.312,8.248c0.368,1.984,0.856,3.952,1.28,5.928
			c0.56,2.592,1.08,5.192,1.728,7.76c0.52,2.048,1.144,4.072,1.712,6.104c0.696,2.464,1.36,4.936,2.136,7.376
			c0.656,2.064,1.408,4.096,2.12,6.136c0.8,2.4,1.64,4.76,2.552,7.112c0.8,2.048,1.672,4.056,2.52,6.072
			c0.968,2.304,1.912,4.608,2.952,6.872c0.928,2.024,1.944,4,2.936,6.008c0.856,1.728,1.6,3.488,2.536,5.2
			C229.449,338.873,204.62,376.546,170.248,404.1z M464,183.068c0.183,64.159-28.873,124.906-78.936,165.032l-2.448,1.968
			c-23.944,19.259-58.31,18.355-81.208-2.136c-17.988-16.09-33.077-35.151-44.608-56.352c-12.723-23.332-20.972-48.837-24.32-75.2
			c-1.107-8.757-1.662-17.574-1.664-26.4V78.052c75.878-23.984,157.306-23.984,233.184,0V183.068z"/>
	</g>
</g>
<g>
	<g>
		<path d="M96.336,205.26c-3.685-2.443-8.653-1.437-11.096,2.248l-3.472,5.256C72.501,226.791,56.812,235.229,40,235.228
			c-4.418,0-8,3.582-8,8s3.582,8,8,8c22.176,0.007,42.874-11.117,55.104-29.616l3.48-5.256
			C101.027,212.671,100.021,207.703,96.336,205.26z"/>
	</g>
</g>
<g>
	<g>
		<path d="M179.632,323.204h-0.04c-30.349-20.44-70.059-20.44-100.408,0c-12.835,8.625-16.248,26.022-7.623,38.857
			c5.182,7.712,13.852,12.35,23.143,12.383c4.326-0.002,8.592-1.016,12.456-2.96c14.001-6.984,30.471-6.984,44.472,0
			c13.777,6.965,30.592,1.444,37.557-12.333C195.595,346.48,191.485,331.02,179.632,323.204z M173.992,353.132
			c-3.318,4.994-9.836,6.733-15.2,4.056c-18.525-9.252-40.323-9.252-58.848,0c-5.363,2.688-11.889,0.947-15.2-4.056
			c-3.675-5.506-2.196-12.948,3.304-16.632c24.965-16.81,57.627-16.81,82.592,0C176.157,340.168,177.657,347.613,173.992,353.132z"
			/>
	</g>
</g>
<g>
	<g>
		<path d="M218.904,277.108L203.28,240.66l-0.08-0.136c-1.116-3.164-4.101-5.284-7.456-5.296
			c-16.81,0.003-32.498-8.436-41.76-22.464l-3.488-5.256c-2.443-3.683-7.409-4.687-11.092-2.244
			c-3.683,2.443-4.687,7.409-2.244,11.092l3.488,5.256c10.059,15.157,25.932,25.486,43.864,28.544l-11.56,26.952
			c-5.442,12.689,0.433,27.388,13.122,32.83c12.689,5.442,27.388-0.433,32.83-13.122C221.603,290.524,221.603,283.4,218.904,277.108
			z M203.44,291.932c-2.967,4.147-8.734,5.103-12.88,2.136c-0.824-0.59-1.546-1.311-2.136-2.136c-1.702-2.509-2.004-5.714-0.8-8.496
			l8.272-19.304l8.272,19.304C205.398,286.206,205.123,289.412,203.44,291.932z"/>
	</g>
</g>
<g>
</g>
<g>
</g>
<g>
</g>
<g>
</g>
<g>
</g>
<g>
</g>
<g>
</g>
<g>
</g>
<g>
</g>
<g>
</g>
<g>
</g>
<g>
</g>
<g>
</g>
<g>
</g>
<g>
</g>
</svg>
