<?xml version="1.0" encoding="utf-8"?>
<svg version="1.1" id="Vrstva_1" xmlns="http://www.w3.org/2000/svg" xmlns:xlink="http://www.w3.org/1999/xlink" x="0px" y="0px"
	 viewBox="0 0 312.9 304.6" style="enable-background:new 0 0 312.9 304.6;" xml:space="preserve">
<style type="text/css">
	.st0{fill:#0CB3B9;}
	.st1{fill:#FFFFFF;}
</style>
<g id="XMLID_11_">
	<path id="XMLID_12_" class="st0" d="M4,304.6V294h21.6V10.7H4V0.1h97.8c17.6-0.3,34.4,0.4,50.4,2.1c16,1.7,29.9,5.2,41.5,10.5
		c24.1,11,36.1,28.3,36.1,51.9c0,25.7-4.6,44.7-13.8,57.1c-4.9,6.8-13.7,13.2-26.4,19.3c17.9,5.6,32.2,14.5,42.8,26.6
		c11.4,13.3,17.1,29.1,17.1,47.6c0,11.8-3.8,23.7-11.2,35.7c-6.8,10.7-15.2,19.8-25.3,27.3c-20.2,16.6-52.9,25.5-98.2,26.6H4z
		 M71.5,143.3c50.6-6.5,80.5-11.8,89.8-15.8c9.5-3.7,16.6-8.9,21.2-15.4c6.2-8.2,9.3-21.8,9.3-40.7c0-21.6-8.6-38.1-25.7-49.5
		c-12.8-8.5-26.8-12.8-42-12.8c-2.3,0-19.8-0.1-52.6-0.4V143.3z M181.4,270.4c19.8-13.1,29.6-32.1,29.6-56.9
		c0-20-3.5-34.8-10.4-44.1c-10.5-14.3-31.3-21.4-62.3-21.4c-4.6,0-26.9,2.1-66.8,6.3v131.5C123.3,288.3,159.9,283.1,181.4,270.4z"/>
</g>
<g id="XMLID_7_">
	<path id="XMLID_8_" class="st1" d="M283.8,287.5c-3.9,0-8.8-0.9-14.6-2.6c-5.8-1.8-11-5.5-15.4-11.1c-3.2,3.5-8.5,6.9-15.9,10.3
		c-7.4,3.4-15.6,5.1-24.7,5.1c-15.7,0-28.5-5.1-38.4-15.3c-9.9-10.2-14.8-23.2-14.8-39c0-10.8,2.6-19.8,7.8-27.1
		c5.2-7.2,12-12.1,20.5-14.7c-1.9-2.8-3.5-6.1-4.9-9.8c-1.4-3.7-2.1-7.5-2.1-11.4c0-7.2,2.7-14.1,8.1-20.5
		c5.4-6.4,11.9-9.7,19.6-9.7c4.9,0,10,1.4,15.3,4.2l0.3,0.2c0.3,0,0.9-1.5,1.9-4.4h8.2l10.7,31.3H236c-3.8-9-8.6-14.9-14.6-17.6
		c-5.1-2.3-9.3-3.4-12.6-3.4c-3.4,0-6.2,1.3-8.5,3.8c-2.3,2.5-3.4,5.9-3.4,10.2c0,8.2,3.2,16.6,9.6,25.1l49.6,62.6
		c4.9-7.4,8.1-14.1,9.6-20.3c1.1-5,1.7-9.1,1.7-12.4c0-5-1.2-7.5-3.6-7.5h-11.2v-8.8h48.1v8.8h-11.2c-4.8,0-8.7,6.8-11.7,20.5
		c-2.1,8.9-7,18.3-14.7,28.2c6.1,7.6,13.2,11.3,21.4,11.3h1.4c8.3-1,14-5.1,17.3-12.5l9.9,0.2l-11.7,26.4H283.8z M247.3,266.4
		l-52.4-64.7c-5.9,0-10.7,2.6-14.4,7.7c-3.6,5.1-5.5,11.3-5.5,18.7c0,5.7,1.1,11.4,3.4,17.1c2.2,5.7,5.4,10.9,9.5,15.6
		c4.5,5.1,9.6,9.1,15.3,11.8c5.7,2.7,11.7,4.1,17.8,4.1c5.3,0,10.5-1,15.4-3C241.4,271.5,245,269.1,247.3,266.4z"/>
</g>
<g id="XMLID_4_">
	<path id="XMLID_5_" class="st1" d="M121,161.4h-8.2v-4.1H146v4.1h-8.4v108.1h8.4v4.1h-33.2v-4.1h8.2V161.4z"/>
</g>
</svg>
